<svg id="Слой_1" data-name="Слой 1" xmlns="http://www.w3.org/2000/svg" viewBox="0 0 432.67 569.21"><defs><style>.cls-1{fill:none;stroke:#141414;stroke-miterlimit:10;stroke-width:7px;}</style></defs><title>cup2</title><line class="cls-1" x1="50.8" y1="50.45" x2="381.87" y2="50.45"/><g id="coffee-cup-20-coffee-cup-20"><path class="cls-1" d="M606,111.19H570.57V78.8A14.56,14.56,0,0,0,556,64.24H254.78A15.28,15.28,0,0,0,239.5,79.52v31.67H204A11.84,11.84,0,0,0,192.2,123V161A11.83,11.83,0,0,0,204,172.79h14.73l41.22,443a11.82,11.82,0,0,0,11.76,10.62H531.89a11.8,11.8,0,0,0,11.73-10.62l46.23-443H606A11.83,11.83,0,0,0,617.87,161V123A11.83,11.83,0,0,0,606,111.19Z" transform="translate(-188.7 -60.74)"/></g><rect class="cls-1" x="3.5" y="50.57" width="425.67" height="61.13" rx="11.97" ry="11.97"/></svg>