<svg id="Слой_1" data-name="Слой 1" xmlns="http://www.w3.org/2000/svg" viewBox="0 0 280.86 445.67"><defs><style>.cls-1{fill:none;stroke:#fffdfd;stroke-miterlimit:10;stroke-width:8px;}.cls-2{fill:#fffdfd;}</style></defs><title>cupmain</title><g id="coffee-cup-20-coffee-cup-20"><path class="cls-1" d="M573.68,119H550.26l.88-41.29c0-4.56-3.36-8.25-7.51-8.25H348.19c-4.15,0-7.51,3.69-7.51,8.25V119H318.13c-4.16,0-7.52,3.69-7.52,8.26v49.55c0,4.57,3.37,8.26,7.52,8.26h10.19L353.7,499.75c.39,4.21,3.62,7.42,7.47,7.42H526.54c3.84,0,7.07-3.21,7.45-7.42l26.39-314.64h13.29c4.17,0,7.52-3.69,7.52-8.26V127.3C581.2,122.74,577.84,119,573.68,119Z" transform="translate(-304.34 -65.5)"/></g><rect class="cls-2" y="47.57" width="280.49" height="79.17" rx="7.75" ry="7.75"/><polygon class="cls-2" points="260.81 114.07 226.23 439.66 227.23 114.07 260.81 114.07"/><polygon class="cls-2" points="18.41 114.17 52.99 439.76 52.99 114.17 18.41 114.17"/></svg>