<svg id="Слой_1" data-name="Слой 1" xmlns="http://www.w3.org/2000/svg" viewBox="0 0 418.1 457.79"><defs><style>.cls-1,.cls-2{fill:none;stroke-miterlimit:10;stroke-width:6px;}.cls-1{stroke:#fffbfc;}.cls-2{stroke:#141414;}</style></defs><title>cupnd</title><path class="cls-1" d="M324.36,566.39" transform="translate(-180.26 -62.61)"/><g id="coffee-cup-20-coffee-cup-20"><path class="cls-2" d="M583.91,114.16H549.57V76.77c0-6.16-6.31-11.16-14.1-11.16H243.85c-8.17,0-14.79,5.24-14.79,11.71v36.84H194.72c-6.33,0-11.46,4.06-11.46,9.07v37.37c0,5,5.13,9.07,11.45,9.07H209l49.9,339.59c.59,4.62,5.51,8.14,11.38,8.14H504.12c5.85,0,10.77-3.52,11.35-8.14l52.76-339.59H583.9c6.33,0,11.45-4.06,11.45-9.07V123.23C595.36,118.22,590.23,114.16,583.91,114.16Z" transform="translate(-180.26 -62.61)"/></g><rect class="cls-2" x="3" y="51.7" width="412.1" height="55.17" rx="8.57" ry="8.57"/></svg>