<svg id="Слой_1" data-name="Слой 1" xmlns="http://www.w3.org/2000/svg" xmlns:xlink="http://www.w3.org/1999/xlink" viewBox="0 0 422.47 482.09"><defs><style>.cls-1,.cls-2{fill:none;stroke-miterlimit:10;}.cls-1{stroke:#fffcfd;stroke-width:6px;}.cls-2{stroke-width:9px;stroke:url(#Безымянный_градиент_23);}.cls-3{fill:url(#Безымянный_градиент_23-2);}.cls-4{fill:url(#Безымянный_градиент_14);}</style><linearGradient id="Безымянный_градиент_23" x1="283.31" y1="317.91" x2="704.41" y2="317.91" gradientUnits="userSpaceOnUse"><stop offset="0" stop-color="#fff"/><stop offset="0.6" stop-color="#fff"/><stop offset="1" stop-color="#9c9b9b"/></linearGradient><linearGradient id="Безымянный_градиент_23-2" x1="44.18" y1="34.74" x2="379.05" y2="34.74" xlink:href="#Безымянный_градиент_23"/><linearGradient id="Безымянный_градиент_14" y1="94.19" x2="422.47" y2="94.19" gradientUnits="userSpaceOnUse"><stop offset="0" stop-color="#fff"/><stop offset="0.58" stop-color="#fff"/><stop offset="1" stop-color="#9c9b9b"/></linearGradient></defs><title>espresso</title><line class="cls-1" x1="51.6" y1="57.35" x2="372.12" y2="57.35"/><line class="cls-1" x1="26.69" y1="129.86" x2="390.78" y2="129.86"/><g id="coffee-cup-20-coffee-cup-20"><path class="cls-2" d="M688.46,133.07H654.12V93.68c0-6.16-6.31-11.16-14.1-11.16H348.4c-8.17,0-14.79,5.24-14.79,11.71v38.84H299.27c-6.33,0-11.46,4.06-11.46,9.07v54.37c0,5,5.13,9.07,11.45,9.07h14.26l49.9,339.59c.59,4.62,5.51,8.14,11.38,8.14H608.67c5.85,0,10.77-3.52,11.35-8.14l52.76-339.59h15.67c6.33,0,11.45-4.06,11.45-9.07V142.14C699.91,137.13,694.79,133.07,688.46,133.07Z" transform="translate(-282 -75.72)"/></g><rect class="cls-3" x="44.18" width="334.88" height="69.48" rx="7.58" ry="7.58"/><rect class="cls-4" y="51.69" width="422.47" height="85.02" rx="6.79" ry="6.79"/></svg>